<?xml version="1.0" standalone="no"?>
<!DOCTYPE svg PUBLIC "-//W3C//DTD SVG 1.1//EN" "http://www.w3.org/Graphics/SVG/1.1/DTD/svg11.dtd" >
<svg>
<metadata>
Created by FontForge 20120731 at Fri Jun  3 13:37:59 2016
 By www
Font software Copyright 1998 Monotype Imaging, Inc. All rights reserved.
</metadata>
<defs>
<font id="RotisSemiSansStd-Light" horiz-adv-x="482" >
  <font-face 
    font-family="Rotis SemiSans Std Light"
    font-weight="300"
    font-stretch="normal"
    units-per-em="1000"
    panose-1="2 0 3 3 4 0 0 2 2 4"
    ascent="710"
    descent="-290"
    x-height="476"
    cap-height="690"
    bbox="-35 -235 1089 911"
    underline-thickness="50"
    underline-position="-75"
    stemh="39"
    stemv="55"
    unicode-range="U+0020-FB02"
  />
<missing-glyph horiz-adv-x="500" 
d="M12 0v665h475v-665h-475zM88 618l162 -243l161 243h-323zM60 575v-484c0 -1 161 242 161 242zM440 575l-162 -242l162 -243v485zM411 48l-161 242l-162 -242h323z" />
    <glyph glyph-name="fi" unicode="fi" horiz-adv-x="519" 
d="M441 609h-70v81h70v-81zM433 0h-55v476h55v-476zM332 636c-23 8 -41 18 -66 18c-80 0 -94 -50 -94 -119c0 -19 1 -39 1 -59h133v-41h-133v-435h-55v435h-81v41h81v70c0 101 52 147 151 147c21 0 42 -4 63 -8v-49z" />
    <glyph glyph-name="fl" unicode="fl" horiz-adv-x="522" 
d="M438 0h-55v690h55v-690zM332 636c-23 8 -41 18 -66 18c-80 0 -94 -50 -94 -119c0 -19 1 -39 1 -59h133v-41h-133v-435h-55v435h-81v41h81v70c0 101 52 147 151 147c21 0 42 -4 63 -8v-49z" />
    <glyph glyph-name=".notdef" horiz-adv-x="500" 
d="M12 0v665h475v-665h-475zM88 618l162 -243l161 243h-323zM60 575v-484c0 -1 161 242 161 242zM440 575l-162 -242l162 -243v485zM411 48l-161 242l-162 -242h323z" />
    <glyph glyph-name="space" unicode=" " horiz-adv-x="241" 
 />
    <glyph glyph-name="exclam" unicode="!" horiz-adv-x="260" 
d="M203 690l-11 -511h-50l-11 511h72zM207 0h-80v80h80v-80z" />
    <glyph glyph-name="quotedbl" unicode="&#x22;" horiz-adv-x="315" 
d="M258 690l-15 -206h-42l-15 206h72zM129 690l-15 -206h-42l-15 206h72z" />
    <glyph glyph-name="numbersign" unicode="#" horiz-adv-x="575" 
d="M515 407l-12 -44h-111l-25 -94h113l-12 -44h-112l-59 -225h-52l59 225h-86l-59 -225h-52l58 225h-105l11 44h107l23 94h-105l11 44h107l60 227h52l-60 -227h87l58 227h52l-60 -227h112zM339 363h-85l-25 -94h87z" />
    <glyph glyph-name="dollar" unicode="$" horiz-adv-x="519" 
d="M460 168c0 -109 -77 -179 -184 -179v-80h-42v80c-91 4 -161 47 -175 142h72c7 -61 44 -92 103 -103v292c-98 24 -167 58 -167 171c0 101 69 166 167 176v72h42v-72c59 -2 123 -28 155 -80c11 -17 18 -36 18 -57h-72c0 54 -50 95 -101 98v-273c99 -33 184 -66 184 -187z
M234 367v261c-65 -8 -102 -72 -102 -133c0 -69 40 -107 102 -128zM392 165c0 78 -48 115 -116 141v-278c17 0 34 6 49 15c44 26 67 72 67 122z" />
    <glyph glyph-name="percent" unicode="%" horiz-adv-x="779" 
d="M755 206c0 -101 -15 -217 -143 -217s-143 116 -143 217s12 229 143 229s143 -128 143 -229zM511 634l-196 -634h-48l197 634h47zM310 416c0 -101 -15 -217 -143 -217s-143 116 -143 217s12 229 143 229s143 -128 143 -229zM701 207c0 63 -4 187 -92 187
c-84 0 -86 -128 -86 -187s2 -177 86 -177c87 0 92 114 92 177zM256 417c0 63 -4 187 -92 187c-85 0 -86 -127 -86 -187s2 -177 86 -177c87 0 92 114 92 177z" />
    <glyph glyph-name="ampersand" unicode="&#x26;" horiz-adv-x="612" 
d="M604 -3c-15 -5 -31 -8 -47 -8c-106 0 -118 59 -118 150v197h-167c-99 0 -153 -42 -153 -145c0 -94 48 -163 148 -163c26 0 56 6 79 17v-45c-32 -8 -64 -11 -96 -11c-121 0 -199 72 -199 195c0 82 30 141 107 175c-64 18 -103 73 -103 139c0 111 89 168 192 168
c33 0 67 -3 99 -13v-45c-31 11 -64 19 -97 19c-76 0 -132 -53 -132 -130c0 -74 60 -120 130 -120h192v157l55 38v-195h110v-41h-110v-202c0 -55 7 -106 75 -106c12 0 24 2 35 6v-37z" />
    <glyph glyph-name="quoteright" unicode="&#x2019;" horiz-adv-x="185" 
d="M135 690l-30 -206h-53l11 206h72z" />
    <glyph glyph-name="parenleft" unicode="(" horiz-adv-x="260" 
d="M228 -143c-157 33 -153 313 -153 436c0 135 -14 434 153 475v-39c-81 -50 -86 -189 -90 -275c-1 -36 -2 -72 -2 -108v-94c0 -101 -5 -297 92 -356v-39z" />
    <glyph glyph-name="parenright" unicode=")" horiz-adv-x="260" 
d="M185 332c0 -135 14 -434 -153 -475v39c81 50 86 189 90 275c1 36 2 72 2 108v94c0 101 5 297 -92 356v39c157 -34 153 -312 153 -436z" />
    <glyph glyph-name="asterisk" unicode="*" horiz-adv-x="315" 
d="M304 542h-109l56 -94l-38 -22l-54 93l-56 -93l-37 22l55 94h-110v42h110l-55 95l37 22l56 -96l54 96l38 -22l-56 -95h109v-42z" />
    <glyph glyph-name="plus" unicode="+" horiz-adv-x="575" 
d="M515 212h-200v-212h-55v212h-200v50h200v200h55v-200h200v-50z" />
    <glyph glyph-name="comma" unicode="," horiz-adv-x="185" 
d="M135 83l-30 -216h-53l11 216h72z" />
    <glyph glyph-name="hyphen" unicode="-" horiz-adv-x="389" 
d="M332 215h-275v56h275v-56z" />
    <glyph glyph-name="period" unicode="." horiz-adv-x="185" 
d="M134 0h-83v83h83v-83z" />
    <glyph glyph-name="slash" unicode="/" horiz-adv-x="278" 
d="M254 761l-174 -897h-56l173 897h57z" />
    <glyph glyph-name="zero" unicode="0" 
d="M448 306c0 -138 -25 -317 -202 -317c-190 0 -212 188 -212 336c0 140 25 320 204 320c184 0 210 -197 210 -339zM380 308c0 97 -8 293 -143 293c-122 0 -135 -182 -135 -270c0 -94 9 -298 141 -298c129 0 137 183 137 275z" />
    <glyph glyph-name="one" unicode="1" 
d="M308 0h-62v568l-113 -81v62l124 85h51v-634z" />
    <glyph glyph-name="two" unicode="2" 
d="M420 0h-358v51c101 98 280 290 280 437c0 64 -42 113 -108 113c-68 0 -93 -45 -101 -106h-73c11 101 80 150 178 150c106 0 169 -67 169 -172c0 -155 -171 -316 -271 -422h284v-51z" />
    <glyph glyph-name="three" unicode="3" 
d="M408 169c0 -116 -68 -180 -183 -180c-91 0 -171 39 -181 138h74c2 -62 44 -94 104 -94c84 0 118 60 118 137c0 66 -33 138 -108 138h-29v44h19c71 0 107 55 107 121s-36 128 -108 128c-58 0 -88 -35 -96 -90h-73c0 18 5 35 13 50c30 58 94 84 156 84
c106 0 176 -59 176 -168c0 -70 -38 -132 -110 -145v-2c84 -15 121 -81 121 -161z" />
    <glyph glyph-name="four" unicode="4" 
d="M466 188h-112v-188h-55v188h-251v49l246 397h60v-395h112v-51zM299 239v306h-2l-188 -306h190z" />
    <glyph glyph-name="five" unicode="5" 
d="M439 185c0 -124 -76 -196 -199 -196c-94 0 -159 39 -175 136h74c5 -58 46 -92 103 -92c94 0 129 67 129 152c0 76 -36 151 -122 151c-37 0 -83 -19 -98 -55h-58l17 353h294v-46h-239l-14 -240c30 22 70 32 107 32c112 0 181 -87 181 -195z" />
    <glyph glyph-name="six" unicode="6" 
d="M454 188c0 -119 -66 -199 -189 -199c-186 0 -201 180 -201 323c0 148 25 333 214 333c60 0 114 -25 144 -78c10 -18 16 -37 17 -57h-73c0 51 -39 91 -90 91c-141 0 -147 -203 -147 -304h2c29 57 89 84 151 84c117 0 172 -84 172 -193zM386 187c0 71 -41 150 -121 150
c-74 0 -125 -76 -125 -144c0 -75 41 -160 126 -160c84 0 120 81 120 154z" />
    <glyph glyph-name="seven" unicode="7" 
d="M422 583l-240 -583h-71l243 583h-287v51h355v-51z" />
    <glyph glyph-name="eight" unicode="8" 
d="M430 163c0 -111 -78 -174 -185 -174c-113 0 -193 65 -193 182c0 79 48 142 126 157v2c-76 16 -112 74 -112 149c0 105 80 166 180 166s170 -63 170 -165c0 -68 -40 -140 -112 -151v-2c86 -17 126 -80 126 -164zM348 476c0 64 -37 125 -107 125s-107 -63 -107 -127
c0 -63 35 -123 104 -123c75 0 110 56 110 125zM362 163c0 74 -40 140 -120 140c-75 0 -122 -64 -122 -135c0 -75 47 -135 125 -135c80 0 117 55 117 130z" />
    <glyph glyph-name="nine" unicode="9" 
d="M426 332c0 -145 -19 -343 -209 -343c-65 0 -124 26 -155 86c-8 16 -14 34 -15 52h73c0 -58 42 -94 98 -94c133 0 143 214 143 308h-2c-20 -54 -94 -85 -148 -85c-113 0 -173 85 -173 191c0 117 68 198 188 198c176 0 200 -175 200 -313zM354 434c0 76 -45 167 -131 167
c-83 0 -117 -76 -117 -148s34 -153 117 -153c71 0 131 64 131 134z" />
    <glyph glyph-name="colon" unicode=":" horiz-adv-x="241" 
d="M190 393h-83v83h83v-83zM190 0h-83v83h83v-83z" />
    <glyph glyph-name="semicolon" unicode=";" horiz-adv-x="241" 
d="M191 393h-83v83h83v-83zM187 83l-30 -216h-53l11 216h72z" />
    <glyph glyph-name="less" unicode="&#x3c;" horiz-adv-x="575" 
d="M515 0l-455 206v50l455 206v-50l-398 -181l398 -181v-50z" />
    <glyph glyph-name="equal" unicode="=" horiz-adv-x="575" 
d="M515 281h-455v50h455v-50zM515 143h-455v50h455v-50z" />
    <glyph glyph-name="greater" unicode="&#x3e;" horiz-adv-x="575" 
d="M515 206l-455 -206v50l398 181l-398 181v50l455 -206v-50z" />
    <glyph glyph-name="question" unicode="?" horiz-adv-x="389" 
d="M370 554c0 -133 -181 -215 -181 -325v-50h-54v73c0 57 14 74 50 115c16 18 32 37 47 56c34 43 70 74 70 134c0 61 -48 96 -106 96c-42 0 -94 -20 -128 -45v69c40 15 82 24 125 24c93 0 177 -44 177 -147zM202 0h-80v80h80v-80z" />
    <glyph glyph-name="at" unicode="@" horiz-adv-x="1000" 
d="M905 320c0 -151 -119 -320 -281 -320c-48 0 -71 23 -72 71c-31 -41 -78 -65 -130 -65c-85 0 -133 62 -133 143c0 127 117 327 259 327c55 0 93 -23 116 -74l22 54h87c-23 -56 -145 -343 -145 -377c0 -16 15 -27 30 -27c30 0 58 14 82 31c75 52 119 147 119 237
c0 165 -138 273 -296 273c-160 0 -301 -101 -365 -246c-21 -46 -34 -97 -34 -148c0 -194 173 -287 348 -287c107 0 209 34 292 102l27 -23c-14 -16 -31 -29 -49 -41c-80 -55 -177 -83 -274 -83c-198 0 -413 108 -413 331c0 242 209 446 450 446c190 0 360 -122 360 -324z
M632 373c0 35 -26 64 -62 64c-102 0 -201 -237 -201 -323c0 -44 25 -67 69 -67c94 0 156 166 177 241c8 27 17 57 17 85z" />
    <glyph glyph-name="A" unicode="A" horiz-adv-x="538" 
d="M528 0h-62l-75 229h-257l-75 -229h-50l224 690h71zM376 275l-112 351h-2l-113 -351h227z" />
    <glyph glyph-name="B" unicode="B" horiz-adv-x="519" 
d="M468 189c0 -130 -92 -189 -213 -189h-167v690h143c115 0 206 -41 206 -170c0 -69 -46 -147 -120 -155v-2c88 -3 151 -91 151 -174zM372 520c0 83 -53 124 -132 124h-90v-261h56c90 0 166 36 166 137zM400 190c0 91 -67 147 -155 147h-95v-289h90c91 0 160 44 160 142z
" />
    <glyph glyph-name="C" unicode="C" horiz-adv-x="519" 
d="M504 503h-76c0 85 -45 152 -135 152c-146 0 -174 -172 -174 -285c0 -131 34 -335 203 -335c64 0 108 25 155 65v-65c-47 -33 -106 -46 -163 -46c-209 0 -263 201 -263 373c0 157 55 339 244 339c116 0 209 -78 209 -198z" />
    <glyph glyph-name="D" unicode="D" horiz-adv-x="574" 
d="M523 345c0 -214 -74 -345 -305 -345h-130v690h118c238 0 317 -119 317 -345zM455 337c0 109 -15 246 -132 290c-39 14 -81 17 -122 17h-51v-596h51c202 0 254 102 254 289z" />
    <glyph glyph-name="E" unicode="E" horiz-adv-x="445" 
d="M403 0h-315v690h306v-46h-244v-260h232v-46h-232v-290h253v-48z" />
    <glyph glyph-name="F" unicode="F" horiz-adv-x="389" 
d="M387 644h-237v-260h225v-46h-225v-338h-62v690h299v-46z" />
    <glyph glyph-name="G" unicode="G" horiz-adv-x="593" 
d="M531 502h-76c1 94 -58 153 -152 153c-154 0 -184 -177 -184 -297c0 -132 35 -323 203 -323c49 0 99 15 134 50v252h-172v46h234v-327c-49 -50 -137 -67 -205 -67c-212 0 -262 197 -262 372c0 164 57 340 251 340c88 0 169 -33 209 -116c13 -26 20 -54 20 -83z" />
    <glyph glyph-name="H" unicode="H" horiz-adv-x="593" 
d="M505 0h-62v334h-293v-334h-62v690h62v-310h293v310h62v-690z" />
    <glyph glyph-name="I" unicode="I" horiz-adv-x="241" 
d="M151 0h-62v690h62v-690z" />
    <glyph glyph-name="J" unicode="J" horiz-adv-x="334" 
d="M254 142c0 -111 -69 -153 -172 -153c-28 0 -55 4 -82 10v66c30 -11 58 -23 90 -23c74 0 102 42 102 112v536h62v-548z" />
    <glyph glyph-name="K" unicode="K" horiz-adv-x="501" 
d="M501 0h-75l-274 339h-2v-339h-62v690h62v-313h2l250 313h66l-264 -325z" />
    <glyph glyph-name="L" unicode="L" horiz-adv-x="389" 
d="M393 0h-305v690h62v-642h243v-48z" />
    <glyph glyph-name="M" unicode="M" horiz-adv-x="760" 
d="M672 0h-62v637h-2l-203 -637h-60l-203 637h-2v-637h-52v690h92l196 -615h2l198 615h96v-690z" />
    <glyph glyph-name="N" unicode="N" horiz-adv-x="612" 
d="M524 0h-82l-295 614h-2v-614h-57v690h77l300 -619h2v619h57v-690z" />
    <glyph glyph-name="O" unicode="O" horiz-adv-x="575" 
d="M523 346c0 -160 -31 -357 -234 -357c-199 0 -238 198 -238 357c0 157 42 355 238 355c193 0 234 -201 234 -355zM455 342c0 109 -23 313 -169 313c-151 0 -167 -202 -167 -313c0 -110 26 -307 172 -307c152 0 164 196 164 307z" />
    <glyph glyph-name="P" unicode="P" 
d="M459 501c0 -149 -104 -186 -234 -186h-75v-315h-62v690h137c129 0 234 -42 234 -189zM391 499c0 121 -86 145 -189 145h-52v-283h52c100 0 189 17 189 138z" />
    <glyph glyph-name="Q" unicode="Q" horiz-adv-x="575" 
d="M568 0h-279c-190 0 -238 191 -238 346c0 158 42 355 238 355c193 0 234 -201 234 -355c0 -110 -11 -242 -114 -306l2 -2c51 3 109 9 157 27v-65zM455 342c0 109 -23 313 -169 313c-151 0 -167 -202 -167 -313c0 -106 34 -296 172 -296c150 0 164 185 164 296z" />
    <glyph glyph-name="R" unicode="R" horiz-adv-x="538" 
d="M469 0h-64l-36 177c-22 108 -59 140 -170 140h-49v-317h-62v690h138c123 0 229 -42 229 -182c0 -95 -69 -157 -160 -167v-2c100 -13 118 -64 136 -153zM387 505c0 106 -71 139 -166 139h-71v-281h39c94 0 198 28 198 142z" />
    <glyph glyph-name="S" unicode="S" horiz-adv-x="463" 
d="M425 181c0 -135 -107 -192 -229 -192c-51 0 -103 4 -153 16v71c48 -23 104 -39 157 -39c87 0 157 43 157 137c0 176 -318 140 -318 356c0 121 101 171 209 171c46 0 92 -5 137 -16v-69c-48 22 -99 39 -152 39c-69 0 -133 -36 -133 -112c0 -78 54 -104 115 -136
c32 -16 65 -33 96 -52c74 -44 114 -83 114 -174z" />
    <glyph glyph-name="T" unicode="T" horiz-adv-x="389" 
d="M389 644h-163v-644h-62v644h-163v46h388v-46z" />
    <glyph glyph-name="U" unicode="U" horiz-adv-x="593" 
d="M511 229c0 -140 -68 -240 -217 -240c-150 0 -211 101 -211 240v461h62v-442c0 -107 23 -213 153 -213c129 0 151 107 151 213v442h62v-461z" />
    <glyph glyph-name="V" unicode="V" horiz-adv-x="500" 
d="M518 690l-226 -690h-80l-229 690h64l210 -625h2l200 625h59z" />
    <glyph glyph-name="W" unicode="W" horiz-adv-x="797" 
d="M756 690l-119 -690h-84l-154 622h-2l-153 -622h-85l-118 690h62l103 -616h2l156 616h75l153 -616h2l106 616h56z" />
    <glyph glyph-name="X" unicode="X" horiz-adv-x="501" 
d="M501 0h-74l-182 306l-183 -306h-62l215 358l-197 332h74l161 -272l159 272h64l-193 -323z" />
    <glyph glyph-name="Y" unicode="Y" 
d="M482 690l-213 -373v-317h-62v317l-207 373h69l172 -314l176 314h65z" />
    <glyph glyph-name="Z" unicode="Z" 
d="M454 0h-426v48l338 596h-321v46h395v-46l-340 -596h354v-48z" />
    <glyph glyph-name="bracketleft" unicode="[" horiz-adv-x="260" 
d="M245 -136h-154v897h154v-50h-96v-797h96v-50z" />
    <glyph glyph-name="backslash" unicode="\" horiz-adv-x="278" 
d="M254 -136h-56l-174 897h57z" />
    <glyph glyph-name="bracketright" unicode="]" horiz-adv-x="260" 
d="M168 -136h-154v50h96v797h-96v50h154v-897z" />
    <glyph glyph-name="asciicircum" unicode="^" horiz-adv-x="334" 
d="M281 537h-53l-59 112l-64 -112h-53l86 153h59z" />
    <glyph glyph-name="underscore" unicode="_" horiz-adv-x="500" 
d="M500 -115h-500v50h500v-50z" />
    <glyph glyph-name="quoteleft" unicode="&#x2018;" horiz-adv-x="185" 
d="M134 690l-11 -206h-72l30 206h53z" />
    <glyph glyph-name="a" unicode="a" horiz-adv-x="445" 
d="M362 0h-55v74h-2c-22 -50 -83 -85 -137 -85c-69 0 -127 50 -127 121c0 133 165 155 266 155v32c0 75 0 151 -97 151c-60 0 -87 -29 -89 -88h-69c12 93 76 127 164 127c112 0 146 -60 146 -164v-323zM307 199v27c-73 0 -205 -10 -205 -109c0 -48 37 -78 83 -78
c86 0 122 86 122 160z" />
    <glyph glyph-name="b" unicode="b" horiz-adv-x="463" 
d="M418 233c0 -117 -47 -244 -184 -244c-142 0 -166 114 -166 231v470h55v-309h2c26 57 63 106 131 106c126 0 162 -154 162 -254zM357 225c0 72 -12 223 -111 223c-92 0 -119 -160 -119 -229c0 -70 15 -191 108 -191c100 0 122 119 122 197z" />
    <glyph glyph-name="c" unicode="c" horiz-adv-x="408" 
d="M378 335h-69c1 64 -15 113 -89 113c-98 0 -114 -113 -114 -188c0 -114 52 -230 182 -230c24 0 49 3 72 11v-41c-28 -8 -58 -11 -87 -11c-167 0 -228 105 -228 260c0 120 41 238 181 238c93 0 152 -58 152 -152z" />
    <glyph glyph-name="d" unicode="d" 
d="M399 0h-55v97h-2c-15 -61 -75 -108 -138 -108c-134 0 -158 140 -158 246c0 108 33 252 167 252c67 0 111 -44 129 -106h2v309h55v-690zM344 243c0 68 -44 205 -128 205c-96 0 -109 -147 -109 -217c0 -65 11 -203 100 -203c101 0 137 134 137 215z" />
    <glyph glyph-name="e" unicode="e" horiz-adv-x="431" 
d="M388 297h-281c0 -92 21 -208 113 -251c23 -11 48 -16 73 -16c29 0 58 2 86 12v-42c-33 -8 -66 -11 -100 -11c-167 0 -233 105 -233 261c0 124 41 237 184 237c114 0 158 -87 158 -190zM327 336c0 67 -35 112 -105 112s-106 -46 -111 -112h216z" />
    <glyph glyph-name="f" unicode="f" horiz-adv-x="313" 
d="M332 636c-23 8 -41 18 -66 18c-80 0 -94 -50 -94 -119c0 -19 1 -39 1 -59h133v-41h-133v-435h-55v435h-81v41h81v70c0 101 52 147 151 147c21 0 42 -4 63 -8v-49z" />
    <glyph glyph-name="g" unicode="g" 
d="M399 26c0 -145 -53 -227 -207 -227c-39 0 -78 4 -115 18v68c42 -21 81 -39 129 -39c127 0 138 105 138 206v55h-2c-15 -59 -67 -107 -130 -107c-131 0 -166 142 -166 248c0 105 40 239 167 239c65 0 114 -44 129 -106h2v95h55v-450zM344 251c0 71 -40 197 -127 197
c-91 0 -110 -132 -110 -201c0 -68 18 -208 110 -208c65 0 103 75 117 130c7 26 10 54 10 82z" />
    <glyph glyph-name="h" unicode="h" horiz-adv-x="501" 
d="M418 0h-55v318c0 53 -6 119 -75 119c-72 0 -117 -87 -136 -146c-7 -21 -14 -47 -14 -69v-222h-55v690h55v-344h2c23 67 80 141 158 141c95 0 120 -68 120 -151v-336z" />
    <glyph glyph-name="i" unicode="i" horiz-adv-x="222" 
d="M146 609h-70v81h70v-81zM139 0h-55v476h55v-476z" />
    <glyph glyph-name="j" unicode="j" horiz-adv-x="222" 
d="M152 609h-70v81h70v-81zM144 -31c0 -116 -54 -165 -168 -165h-11v49c10 -2 19 -3 29 -3c68 0 95 37 95 102v524h55v-507z" />
    <glyph glyph-name="k" unicode="k" horiz-adv-x="408" 
d="M397 0h-66l-191 253h-2v-253h-55v690h55v-431h2l175 217h62l-178 -215z" />
    <glyph glyph-name="l" unicode="l" horiz-adv-x="222" 
d="M139 0h-55v690h55v-690z" />
    <glyph glyph-name="m" unicode="m" horiz-adv-x="742" 
d="M659 0h-55v321c0 51 -3 116 -70 116c-91 0 -136 -144 -136 -218v-219h-55v326c0 48 -5 111 -68 111c-90 0 -138 -145 -138 -218v-219h-55v476h55v-119h2c23 62 77 130 149 130c76 0 110 -60 110 -129h2c22 61 77 129 148 129c75 0 111 -59 111 -128v-359z" />
    <glyph glyph-name="n" unicode="n" horiz-adv-x="501" 
d="M418 0h-55v318c0 54 -5 119 -75 119c-89 0 -150 -147 -150 -222v-215h-55v476h55v-130h2c24 69 78 141 158 141c97 0 120 -72 120 -155v-332z" />
    <glyph glyph-name="o" unicode="o" 
d="M437 232c0 -126 -52 -243 -195 -243c-149 0 -196 123 -196 252c0 122 51 246 192 246c149 0 199 -126 199 -255zM376 229c0 92 -20 219 -138 219c-106 0 -131 -113 -131 -198c0 -89 19 -222 134 -222c112 0 135 111 135 201z" />
    <glyph glyph-name="p" unicode="p" 
d="M436 233c0 -107 -36 -244 -167 -244c-67 0 -111 44 -129 106h-2v-309h-55v690h55v-96h2c20 57 66 107 130 107c134 0 166 -147 166 -254zM375 231c0 69 -15 217 -110 217c-84 0 -127 -136 -127 -204c0 -71 38 -216 128 -216s109 136 109 203z" />
    <glyph glyph-name="q" unicode="q" 
d="M399 -214h-55v310h-2c-21 -63 -58 -107 -129 -107c-130 0 -167 138 -167 244c0 107 31 254 165 254c62 0 116 -47 131 -106h2v95h55v-690zM344 243c0 69 -42 205 -128 205c-91 0 -109 -148 -109 -215c0 -65 19 -205 107 -205c92 0 130 142 130 215z" />
    <glyph glyph-name="r" unicode="r" horiz-adv-x="315" 
d="M287 415h-16c-98 0 -133 -91 -133 -175v-240h-55v476h55v-106h2c31 59 76 112 147 117v-72z" />
    <glyph glyph-name="s" unicode="s" horiz-adv-x="352" 
d="M335 131c0 -106 -83 -142 -176 -142c-43 0 -92 4 -132 21v61c37 -21 95 -36 137 -36c58 0 110 20 110 87c0 120 -242 91 -242 242c0 94 79 123 160 123c38 0 75 -10 112 -17v-59c-40 17 -79 35 -123 35c-43 0 -93 -15 -93 -67c0 -115 247 -85 247 -248z" />
    <glyph glyph-name="t" unicode="t" horiz-adv-x="322" 
d="M299 -8c-16 -1 -33 -3 -49 -3c-79 0 -135 22 -135 111v335h-78v41h78v111l55 34v-145h125v-41h-125v-303c0 -63 15 -104 86 -104c15 0 29 2 43 7v-43z" />
    <glyph glyph-name="u" unicode="u" horiz-adv-x="501" 
d="M415 0h-55v118h-2c-20 -65 -64 -129 -139 -129c-99 0 -140 62 -140 155v332h55v-319c0 -51 17 -118 80 -118c107 0 146 136 146 222v215h55v-476z" />
    <glyph glyph-name="v" unicode="v" horiz-adv-x="426" 
d="M416 476l-166 -476h-53l-186 476h60l154 -403h2l135 403h54z" />
    <glyph glyph-name="w" unicode="w" horiz-adv-x="667" 
d="M623 476l-113 -476h-53l-118 397h-2l-117 -397h-53l-123 476h57l97 -396h2l112 396h49l118 -396h2l91 396h51z" />
    <glyph glyph-name="x" unicode="x" horiz-adv-x="412" 
d="M401 0h-66l-134 209l-131 -209h-59l160 255l-141 221h64l118 -182l114 182h58l-143 -228z" />
    <glyph glyph-name="y" unicode="y" horiz-adv-x="426" 
d="M416 476l-228 -661h-50l63 190l-190 471h59l160 -394l133 394h53z" />
    <glyph glyph-name="z" unicode="z" horiz-adv-x="389" 
d="M362 0h-335v42l261 393h-242v41h315v-28l-267 -407h268v-41z" />
    <glyph glyph-name="braceleft" unicode="{" 
d="M395 -235c-90 4 -211 67 -211 170c0 32 5 64 12 96c6 31 16 62 16 94c0 63 -54 109 -110 127v24c58 18 110 61 110 127c0 32 -10 63 -16 94c-7 32 -12 64 -12 96c0 103 121 166 211 170v-25c-65 -15 -107 -69 -107 -136c0 -55 14 -109 14 -164c0 -97 -76 -141 -155 -174
c77 -33 155 -80 155 -174c0 -55 -14 -109 -14 -164c0 -67 42 -121 107 -136v-25z" />
    <glyph glyph-name="bar" unicode="|" horiz-adv-x="333" 
d="M191 -184h-49v1017h49v-1017z" />
    <glyph glyph-name="braceright" unicode="}" 
d="M383 252c-56 -18 -110 -64 -110 -127c0 -32 10 -63 16 -94c7 -32 12 -64 12 -96c0 -103 -121 -166 -211 -170v25c65 15 107 69 107 136c0 55 -14 109 -14 164c0 94 78 141 155 174c-79 33 -155 77 -155 174c0 55 14 109 14 164c0 67 -42 121 -107 136v25
c90 -4 211 -67 211 -170c0 -32 -5 -64 -12 -96c-6 -31 -16 -62 -16 -94c0 -66 52 -109 110 -127v-24z" />
    <glyph glyph-name="asciitilde" unicode="~" horiz-adv-x="575" 
d="M516 247c0 -68 -40 -123 -112 -123c-39 0 -61 19 -88 44l-89 82c-17 16 -31 33 -57 33c-68 0 -63 -71 -63 -120h-49v48c0 67 44 121 113 121c41 0 61 -19 89 -45l84 -77c18 -16 36 -37 62 -37c67 0 61 76 61 123h49v-49z" />
    <glyph glyph-name="exclamdown" unicode="&#xa1;" horiz-adv-x="260" 
d="M133 474h-80v80h80v-80zM129 -136h-72l11 510h50z" />
    <glyph glyph-name="cent" unicode="&#xa2;" horiz-adv-x="426" 
d="M381 336h-66c0 56 -16 99 -74 115v-415c16 -3 33 -5 49 -5c29 0 57 4 85 12v-39c-44 -12 -89 -12 -134 -11v-81h-40v91c-122 23 -156 147 -156 255c0 104 38 215 156 229v73h40v-73c87 -9 140 -62 140 -151zM201 52v398c-77 -17 -88 -117 -88 -181c0 -75 19 -175 88 -217
z" />
    <glyph glyph-name="sterling" unicode="&#xa3;" horiz-adv-x="408" 
d="M411 528h-72c0 58 -36 94 -94 94c-80 0 -89 -65 -89 -129v-141h100v-44h-100v-260h240v-48h-302v308h-63v44h63v157c0 109 48 157 157 157c91 0 148 -48 160 -138z" />
    <glyph glyph-name="fraction" unicode="&#x2044;" horiz-adv-x="201" 
d="M218 634l-196 -634h-49l198 634h47z" />
    <glyph glyph-name="yen" unicode="&#xa5;" 
d="M482 690l-212 -373h108v-41h-108v-53h108v-41h-108v-182h-62v182h-108v41h108v53h-108v41h108l-208 373h69l172 -314l176 314h65z" />
    <glyph glyph-name="florin" unicode="&#x192;" horiz-adv-x="334" 
d="M382 685l-9 -49c-20 7 -41 18 -62 18c-110 0 -109 -96 -124 -178h133l-8 -41h-133l-76 -435h-57l76 435h-79l7 41h80c7 35 11 71 22 105c27 82 85 112 168 112c21 0 42 -4 62 -8z" />
    <glyph glyph-name="section" unicode="&#xa7;" horiz-adv-x="426" 
d="M393 346c0 -55 -37 -94 -80 -123c34 -23 56 -52 56 -95c0 -101 -101 -139 -187 -139c-38 0 -74 8 -110 19v75c38 -27 72 -48 120 -48c53 0 109 28 109 88c0 117 -268 79 -268 240c0 57 36 89 74 125c-30 19 -46 52 -46 87c0 82 80 126 153 126c42 0 94 -9 134 -23v-67
c-37 26 -80 46 -126 46c-43 0 -100 -21 -100 -72c0 -120 271 -84 271 -239zM332 330c0 88 -135 107 -195 139c-26 -28 -43 -54 -43 -93c0 -58 41 -75 87 -95c34 -15 69 -26 101 -43c26 18 50 60 50 92z" />
    <glyph glyph-name="currency" unicode="&#xa4;" horiz-adv-x="584" 
d="M507 174c-12 -13 -24 -25 -36 -38l-67 67c-31 -26 -73 -41 -117 -41c-33 0 -79 10 -117 41l-67 -67c-12 13 -24 25 -36 38c22 21 45 43 67 64c-23 32 -39 72 -39 116s14 86 39 116c-22 22 -45 43 -67 65c12 13 24 25 36 38l67 -67c40 30 84 40 117 40
c37 0 84 -13 117 -40c22 23 45 45 67 67c12 -13 24 -25 36 -38c-22 -22 -45 -43 -67 -65c27 -35 39 -77 39 -116c0 -43 -14 -82 -39 -116c22 -21 45 -43 67 -64zM428 355c0 83 -70 140 -140 140c-82 0 -142 -66 -142 -140c0 -76 64 -141 141 -141s141 64 141 141z" />
    <glyph glyph-name="quotesingle" unicode="'" horiz-adv-x="185" 
d="M129 690l-15 -206h-42l-15 206h72z" />
    <glyph glyph-name="quotedblleft" unicode="&#x201c;" horiz-adv-x="315" 
d="M263 690l-11 -206h-72l30 206h53zM133 690l-11 -206h-72l30 206h53z" />
    <glyph glyph-name="guillemotleft" unicode="&#xab;" horiz-adv-x="315" 
d="M275 59h-47l-83 182l83 186h47l-57 -186zM159 59h-47l-84 182l84 186h47l-57 -186z" />
    <glyph glyph-name="guilsinglleft" unicode="&#x2039;" horiz-adv-x="204" 
d="M162 59h-48l-83 182l83 186h48l-58 -186z" />
    <glyph glyph-name="guilsinglright" unicode="&#x203a;" horiz-adv-x="204" 
d="M173 244l-83 -185h-48l58 185l-58 183h48z" />
    <glyph glyph-name="endash" unicode="&#x2013;" 
d="M425 215h-368v56h368v-56z" />
    <glyph glyph-name="dagger" unicode="&#x2020;" horiz-adv-x="463" 
d="M423 388h-161v-388h-61v388h-161v47h161v255h61v-255h161v-47z" />
    <glyph glyph-name="daggerdbl" unicode="&#x2021;" 
d="M433 334h-162v-334h-61v334h-161v47h161v68h-161v47h161v194h61v-194h162v-47h-162v-68h162v-47z" />
    <glyph glyph-name="periodcentered" unicode="&#xb7;" horiz-adv-x="204" 
d="M144 274h-85v85h85v-85z" />
    <glyph glyph-name="paragraph" unicode="&#xb6;" 
d="M465 653h-58v-867h-37v867h-61v-867h-37v437c-124 15 -221 96 -221 227c0 168 150 240 299 240h115v-37z" />
    <glyph glyph-name="bullet" unicode="&#x2022;" 
d="M422 360c0 -99 -82 -180 -181 -180s-181 81 -181 180c0 100 81 182 181 182s181 -82 181 -182z" />
    <glyph glyph-name="quotesinglbase" unicode="&#x201a;" horiz-adv-x="185" 
d="M135 83l-30 -206h-53l11 206h72z" />
    <glyph glyph-name="quotedblbase" unicode="&#x201e;" horiz-adv-x="315" 
d="M265 83l-30 -206h-53l11 206h72zM135 83l-30 -206h-53l11 206h72z" />
    <glyph glyph-name="quotedblright" unicode="&#x201d;" horiz-adv-x="315" 
d="M265 690l-30 -206h-53l11 206h72zM135 690l-30 -206h-53l11 206h72z" />
    <glyph glyph-name="guillemotright" unicode="&#xbb;" horiz-adv-x="315" 
d="M287 244l-84 -185h-47l58 185l-58 183h47zM171 244l-84 -185h-47l57 185l-57 183h47z" />
    <glyph glyph-name="ellipsis" unicode="&#x2026;" horiz-adv-x="686" 
d="M621 0h-79v79h79v-79zM382 0h-79v79h79v-79zM143 0h-79v79h79v-79z" />
    <glyph glyph-name="perthousand" unicode="&#x2030;" horiz-adv-x="1112" 
d="M1089 206c0 -102 -16 -217 -144 -217s-143 116 -143 217s12 229 143 229s144 -128 144 -229zM755 206c0 -101 -15 -217 -143 -217s-143 116 -143 217s12 229 143 229s143 -128 143 -229zM511 634l-196 -634h-48l197 634h47zM310 416c0 -101 -15 -217 -143 -217
s-143 116 -143 217s12 229 143 229s143 -128 143 -229zM1035 207c0 64 -4 187 -93 187c-85 0 -86 -127 -86 -187s2 -177 86 -177c88 0 93 113 93 177zM701 207c0 63 -4 187 -92 187c-84 0 -86 -128 -86 -187s2 -177 86 -177c87 0 92 114 92 177zM256 417
c0 63 -4 187 -92 187c-85 0 -86 -127 -86 -187s2 -177 86 -177c87 0 92 114 92 177z" />
    <glyph glyph-name="questiondown" unicode="&#xbf;" horiz-adv-x="389" 
d="M268 474h-80v80h80v-80zM321 -123c-40 -15 -82 -24 -125 -24c-93 0 -176 44 -176 147c0 134 181 215 181 324v51h54v-73c0 -57 -15 -74 -51 -115c-16 -18 -32 -37 -47 -56c-34 -43 -69 -75 -69 -134c0 -61 47 -96 105 -96c42 0 94 20 128 45v-69z" />
    <glyph glyph-name="grave" unicode="`" horiz-adv-x="301" 
d="M192 559h-54l-61 119h74z" />
    <glyph glyph-name="acute" unicode="&#xb4;" horiz-adv-x="301" 
d="M239 678l-61 -119h-54l41 119h74z" />
    <glyph glyph-name="circumflex" unicode="&#x2c6;" horiz-adv-x="301" 
d="M265 559h-53l-59 75l-64 -75h-53l86 119h59z" />
    <glyph glyph-name="tilde" unicode="&#x2dc;" horiz-adv-x="301" 
d="M261 654c0 -39 -7 -97 -58 -97c-34 0 -88 46 -106 46c-19 0 -22 -30 -23 -44h-35c0 34 11 100 56 100c36 0 81 -49 106 -49c21 0 25 28 25 44h35z" />
    <glyph glyph-name="macron" unicode="&#xaf;" horiz-adv-x="301" 
d="M265 559h-230v53h230v-53z" />
    <glyph glyph-name="breve" unicode="&#x2d8;" horiz-adv-x="301" 
d="M262 678c0 -65 -41 -122 -110 -122s-113 56 -113 122h34c0 -43 39 -69 79 -69c41 0 76 26 76 69h34z" />
    <glyph glyph-name="dotaccent" unicode="&#x2d9;" horiz-adv-x="301" 
d="M189 570h-77v81h77v-81z" />
    <glyph glyph-name="dieresis" unicode="&#xa8;" horiz-adv-x="301" 
d="M277 570h-74v78h74v-78zM113 570h-74v78h74v-78z" />
    <glyph glyph-name="ring" unicode="&#x2da;" horiz-adv-x="301" 
d="M214 618c0 -44 -35 -80 -79 -80s-78 37 -78 80s35 79 78 79s79 -36 79 -79zM180 618c0 25 -20 45 -45 45s-44 -20 -44 -45s18 -46 44 -46c25 0 45 21 45 46z" />
    <glyph glyph-name="cedilla" unicode="&#xb8;" horiz-adv-x="301" 
d="M265 -132c0 -53 -42 -82 -92 -82c-20 0 -40 3 -58 11v42c15 -12 34 -20 53 -20c26 0 49 19 49 46c0 46 -49 47 -83 47l17 104h36l-14 -76c48 -2 92 -15 92 -72z" />
    <glyph glyph-name="hungarumlaut" unicode="&#x2dd;" horiz-adv-x="301" 
d="M301 678l-60 -119h-55l42 119h73zM188 678l-61 -119h-54l41 119h74z" />
    <glyph glyph-name="ogonek" unicode="&#x2db;" horiz-adv-x="301" 
d="M225 -200c-18 -5 -36 -8 -55 -8c-48 0 -95 28 -95 80c0 53 47 105 85 138h37c-31 -31 -74 -81 -74 -127c0 -32 19 -56 52 -56c16 0 37 5 50 15v-42z" />
    <glyph glyph-name="caron" unicode="&#x2c7;" horiz-adv-x="301" 
d="M265 678l-86 -119h-59l-84 119h53l60 -75l63 75h53z" />
    <glyph glyph-name="emdash" unicode="&#x2014;" horiz-adv-x="667" 
d="M610 215h-553v56h553v-56z" />
    <glyph glyph-name="AE" unicode="&#xc6;" horiz-adv-x="760" 
d="M718 0h-280l-21 313h-181l-174 -313h-62l391 690h319v-46h-256l21 -285h222v-46h-220l20 -265h221v-48zM415 359l-18 252h-2l-134 -252h154z" />
    <glyph glyph-name="ordfeminine" unicode="&#xaa;" horiz-adv-x="260" 
d="M222 281h-39v32c-20 -23 -42 -35 -72 -35c-41 0 -74 29 -74 71c0 72 91 86 146 86v31c0 35 -8 63 -49 63c-36 0 -42 -18 -45 -50h-47c6 58 40 79 95 79c64 0 85 -34 85 -94v-183zM183 406c-35 0 -104 -4 -104 -53c0 -24 18 -39 41 -39c51 0 63 51 63 92z" />
    <glyph glyph-name="Lslash" unicode="&#x141;" horiz-adv-x="389" 
d="M393 0h-305v290l-88 -76v57l88 76v343h62v-289l123 107v-56l-123 -108v-296h243v-48z" />
    <glyph glyph-name="Oslash" unicode="&#xd8;" horiz-adv-x="575" 
d="M524 361c0 -161 -36 -372 -240 -372c-56 0 -107 18 -149 56l-44 -82l-37 20l55 99c-51 60 -58 185 -58 261c0 155 43 358 237 358c42 0 99 -11 131 -40l41 67l35 -23l-43 -76c57 -65 72 -184 72 -268zM394 610c-30 25 -67 45 -107 45c-25 0 -49 -8 -70 -22
c-84 -56 -98 -198 -98 -291c0 -45 5 -161 22 -198zM456 347c0 81 -2 147 -34 223l-256 -469c34 -39 63 -66 118 -66c149 0 172 200 172 312z" />
    <glyph glyph-name="OE" unicode="&#x152;" horiz-adv-x="853" 
d="M811 0h-335v126h-2c-34 -85 -83 -137 -179 -137c-197 0 -244 204 -244 363c0 158 42 349 237 349c95 0 153 -52 186 -138h2v127h325v-46h-264v-257h251v-46h-251v-293h274v-48zM476 344c0 117 -32 311 -184 311c-147 0 -173 -181 -173 -293c0 -122 23 -327 185 -327
c151 0 172 196 172 309z" />
    <glyph glyph-name="ordmasculine" unicode="&#xba;" horiz-adv-x="278" 
d="M251 414c0 -73 -30 -138 -112 -138c-84 0 -112 70 -112 143c0 71 30 139 111 139c82 0 113 -73 113 -144zM208 412c0 47 -10 117 -71 117c-55 0 -67 -63 -67 -106c0 -46 8 -118 69 -118c57 0 69 62 69 107z" />
    <glyph glyph-name="ae" unicode="&#xe6;" horiz-adv-x="709" 
d="M665 237h-289c0 -24 6 -47 15 -69c30 -79 92 -138 180 -138c27 0 55 3 81 13v-43c-33 -8 -67 -11 -101 -11c-83 0 -167 41 -202 119c-23 -73 -92 -119 -167 -119c-80 0 -139 48 -139 131c0 140 173 156 278 156v59c0 66 -27 113 -99 113c-46 0 -98 -29 -101 -79h-69
c2 15 8 29 15 42c33 55 95 76 156 76c57 0 104 -22 127 -77c38 46 90 77 150 77c110 0 165 -86 165 -188v-62zM604 276v6c0 73 -7 166 -103 166c-95 0 -125 -92 -125 -172h228zM321 198v39h-26c-75 0 -191 -13 -191 -111c0 -55 44 -87 96 -87c99 0 121 75 121 159z" />
    <glyph glyph-name="dotlessi" unicode="&#x131;" horiz-adv-x="222" 
d="M139 0h-55v476h55v-476z" />
    <glyph glyph-name="lslash" unicode="&#x142;" horiz-adv-x="222" 
d="M223 446l-85 -73v-373h-55v325l-83 -73v54l83 72v312h55v-264l85 72v-52z" />
    <glyph glyph-name="oslash" unicode="&#xf8;" 
d="M437 243c0 -125 -53 -254 -197 -254c-42 0 -75 14 -110 35l-39 -71l-33 16l46 78c-45 56 -59 113 -59 183c0 125 47 257 193 257c28 0 71 -7 93 -24l35 61l30 -17l-35 -62c57 -43 76 -134 76 -202zM313 430c-25 13 -46 18 -74 18c-106 0 -133 -122 -133 -207
c0 -48 4 -103 23 -147zM376 241c0 54 -5 117 -38 162l-185 -341c25 -22 50 -34 84 -34c111 0 139 124 139 213z" />
    <glyph glyph-name="oe" unicode="&#x153;" horiz-adv-x="765" 
d="M722 238h-283c0 -99 83 -208 188 -208c28 0 57 4 83 15v-45c-31 -9 -62 -11 -94 -11c-99 0 -158 36 -208 120c-23 -75 -88 -120 -166 -120c-143 0 -197 124 -197 249c0 133 48 249 199 249c73 0 124 -30 163 -92c26 60 84 92 148 92c129 0 167 -102 167 -214v-35z
M661 277v3c0 71 -10 168 -103 168c-96 0 -121 -92 -121 -171h224zM377 231c0 92 -22 217 -139 217c-108 0 -132 -108 -132 -195c0 -93 18 -225 138 -225c112 0 133 114 133 203z" />
    <glyph glyph-name="germandbls" unicode="&#xdf;" horiz-adv-x="501" 
d="M455 193c0 -120 -65 -197 -188 -197c-24 0 -49 2 -73 6v45c22 -6 45 -12 68 -12c100 0 132 69 132 159c0 91 -37 153 -135 153h-21v47h21c11 0 21 5 31 10c43 24 64 71 64 120c0 70 -39 138 -116 138c-89 0 -100 -94 -100 -162v-500h-55v525c0 46 3 88 36 124
c31 34 81 52 126 52c102 0 170 -72 170 -173c0 -70 -36 -133 -107 -152v-2c107 -11 147 -80 147 -181z" />
    <glyph glyph-name="onesuperior" unicode="&#xb9;" horiz-adv-x="334" 
d="M217 205h-52v369l-76 -54v55l87 59h41v-429z" />
    <glyph glyph-name="logicalnot" unicode="&#xac;" horiz-adv-x="574" 
d="M515 143h-50v138h-406v50h456v-188z" />
    <glyph glyph-name="mu" unicode="&#xb5;" horiz-adv-x="501" 
d="M479 -6c-6 -1 -12 -2 -17 -2c-73 0 -86 47 -85 108h-2c-9 -66 -66 -111 -131 -111c-40 0 -65 13 -91 42v-245h-56v690h55v-273c0 -73 10 -164 103 -164c107 0 119 143 119 222v215h55v-382c0 -27 3 -58 37 -58h13v-42z" />
    <glyph glyph-name="trademark" unicode="&#x2122;" horiz-adv-x="612" 
d="M542 400h-43v262h-2l-68 -262h-53l-68 262h-2v-262h-43v290h78l60 -228h2l59 228h80v-290zM230 648h-74v-248h-43v248h-73v42h190v-42z" />
    <glyph glyph-name="Eth" unicode="&#xd0;" horiz-adv-x="574" 
d="M523 345c0 -223 -73 -345 -311 -345h-124v341h-88v46h88v303h124c235 0 311 -124 311 -345zM455 345c0 191 -44 299 -255 299h-50v-257h158v-46h-158v-293h50c207 0 255 109 255 297z" />
    <glyph glyph-name="onehalf" unicode="&#xbd;" horiz-adv-x="779" 
d="M715 0h-249v42c68 61 186 192 186 288c0 41 -24 70 -66 70c-45 0 -57 -32 -62 -71h-60c9 73 51 111 125 111s118 -47 118 -120c0 -110 -100 -204 -173 -275h181v-45zM469 634l-196 -634h-49l198 634h47zM197 205h-52v369l-76 -54v55l87 59h41v-429z" />
    <glyph glyph-name="plusminus" unicode="&#xb1;" horiz-adv-x="575" 
d="M502 212h-200v-212h-55v212h-200v50h200v200h55v-200h200v-50zM502 -91h-455v50h455v-50z" />
    <glyph glyph-name="Thorn" unicode="&#xde;" horiz-adv-x="556" 
d="M513 360c0 -138 -69 -188 -201 -188h-166v-172h-62v690h62v-139h166c129 0 201 -57 201 -191zM445 358c0 116 -61 147 -168 147h-131v-287h131c105 0 168 21 168 140z" />
    <glyph glyph-name="onequarter" unicode="&#xbc;" horiz-adv-x="779" 
d="M742 125h-72v-125h-52v125h-165v40l166 268h51v-263h72v-45zM475 634l-196 -634h-48l197 634h47zM192 205h-52v369l-76 -54v55l87 59h41v-429zM618 170v176h-2l-107 -176h109z" />
    <glyph glyph-name="divide" unicode="&#xf7;" horiz-adv-x="575" 
d="M314 393h-79v79h79v-79zM502 211h-455v50h455v-50zM314 0h-79v79h79v-79z" />
    <glyph glyph-name="brokenbar" unicode="&#xa6;" horiz-adv-x="241" 
d="M147 402h-54v359h54v-359zM147 -136h-54v359h54v-359z" />
    <glyph glyph-name="degree" unicode="&#xb0;" horiz-adv-x="334" 
d="M308 539c0 -59 -48 -109 -107 -109c-61 0 -109 50 -109 110c0 59 50 105 108 105c59 0 108 -48 108 -106zM267 540c0 36 -31 64 -66 64c-36 0 -68 -28 -68 -64c0 -37 30 -69 67 -69c38 0 66 33 66 69h1z" />
    <glyph glyph-name="thorn" unicode="&#xfe;" horiz-adv-x="463" 
d="M423 237c0 -113 -47 -248 -181 -248c-50 0 -93 23 -116 68h-2v-271h-55v904h55v-274h2c25 45 70 71 121 71c135 0 176 -139 176 -250zM362 241c0 80 -22 207 -125 207c-95 0 -113 -132 -113 -203c0 -76 15 -217 117 -217s121 136 121 213z" />
    <glyph glyph-name="threequarters" unicode="&#xbe;" horiz-adv-x="779" 
d="M767 125h-72v-125h-52v125h-165v40l166 268h51v-263h72v-45zM523 634l-196 -634h-49l198 634h47zM283 325c0 -81 -48 -126 -128 -126c-62 0 -126 32 -126 102h60c1 -42 24 -62 65 -62c50 0 74 33 74 81c0 66 -28 88 -92 88v44c53 0 85 15 85 73c0 41 -23 80 -68 80
c-37 0 -54 -26 -58 -60h-60c6 64 57 100 119 100c73 0 122 -42 122 -117c0 -43 -18 -80 -59 -97c46 -16 66 -60 66 -106zM643 170v176h-2l-107 -176h109z" />
    <glyph glyph-name="twosuperior" unicode="&#xb2;" horiz-adv-x="334" 
d="M291 205h-249v42c68 58 186 195 186 288c0 40 -24 70 -66 70c-46 0 -57 -32 -62 -71h-60c9 73 51 111 125 111s118 -47 118 -120c0 -108 -100 -205 -173 -275h181v-45z" />
    <glyph glyph-name="registered" unicode="&#xae;" horiz-adv-x="500" 
d="M485 466c0 -129 -106 -235 -235 -235s-235 106 -235 235s106 235 235 235s235 -106 235 -235zM450 466c0 110 -90 200 -200 200s-200 -90 -200 -200s90 -200 200 -200s200 90 200 200zM348 348h-50l-39 100h-53v-100h-45v248h83c57 0 101 -14 101 -80
c0 -34 -14 -47 -43 -61zM298 520c0 25 -20 33 -42 33h-50v-65h54c20 0 38 10 38 32z" />
    <glyph glyph-name="minus" unicode="&#x2212;" horiz-adv-x="575" 
d="M515 212h-455v50h455v-50z" />
    <glyph glyph-name="eth" unicode="&#xf0;" 
d="M436 231c0 -126 -51 -242 -194 -242c-147 0 -196 125 -196 252c0 113 49 246 182 246c39 0 73 -15 101 -42l2 2c-27 40 -55 79 -94 108l-83 -37l-16 37l61 26c-32 21 -65 40 -102 51v3h110c15 -9 30 -19 43 -31l80 36l16 -38l-57 -26c105 -92 147 -208 147 -345zM375 232
c0 89 -24 216 -137 216c-106 0 -131 -116 -131 -200c0 -90 19 -220 135 -220c108 0 133 118 133 204z" />
    <glyph glyph-name="multiply" unicode="&#xd7;" horiz-adv-x="575" 
d="M517 38l-42 -41l-192 195l-190 -195l-35 37l190 194l-189 193l42 45l187 -195l187 195l36 -38l-188 -194z" />
    <glyph glyph-name="threesuperior" unicode="&#xb3;" horiz-adv-x="333" 
d="M283 325c0 -81 -48 -126 -128 -126c-62 0 -126 32 -126 102h60c1 -42 24 -62 65 -62c50 0 74 33 74 81c0 66 -28 88 -92 88v44c53 0 85 15 85 73c0 41 -23 80 -68 80c-37 0 -54 -26 -58 -60h-60c6 64 57 100 119 100c73 0 122 -42 122 -117c0 -43 -18 -80 -59 -97
c46 -16 66 -60 66 -106z" />
    <glyph glyph-name="copyright" unicode="&#xa9;" horiz-adv-x="500" 
d="M485 466c0 -129 -106 -235 -235 -235c-130 0 -235 105 -235 235c0 129 106 235 235 235s235 -106 235 -235zM450 466c0 110 -90 200 -200 200s-200 -90 -200 -200s90 -200 200 -200s200 90 200 200zM356 375c-28 -27 -56 -39 -95 -39c-74 0 -136 60 -136 134
s63 134 136 134c38 0 67 -13 95 -39l-26 -33c-20 18 -41 31 -69 31c-51 0 -93 -42 -93 -93c0 -50 39 -93 90 -93c31 0 50 9 72 30z" />
    <glyph glyph-name="Aacute" unicode="&#xc1;" horiz-adv-x="538" 
d="M358 892l-61 -119h-54l41 119h74zM528 0h-62l-75 229h-257l-75 -229h-50l224 690h71zM376 275l-112 351h-2l-113 -351h227z" />
    <glyph glyph-name="Acircumflex" unicode="&#xc2;" horiz-adv-x="538" 
d="M384 773h-53l-59 75l-64 -75h-53l86 119h59zM528 0h-62l-75 229h-257l-75 -229h-50l224 690h71zM376 275l-112 351h-2l-113 -351h227z" />
    <glyph glyph-name="Adieresis" unicode="&#xc4;" horiz-adv-x="538" 
d="M396 784h-74v78h74v-78zM232 784h-74v78h74v-78zM528 0h-62l-75 229h-257l-75 -229h-50l224 690h71zM376 275l-112 351h-2l-113 -351h227z" />
    <glyph glyph-name="Agrave" unicode="&#xc0;" horiz-adv-x="538" 
d="M311 773h-54l-61 119h74zM528 0h-62l-75 229h-257l-75 -229h-50l224 690h71zM376 275l-112 351h-2l-113 -351h227z" />
    <glyph glyph-name="Aring" unicode="&#xc5;" horiz-adv-x="538" 
d="M343 832c0 -44 -35 -80 -79 -80s-78 37 -78 80s35 79 78 79s79 -36 79 -79zM528 0h-62l-75 229h-257l-75 -229h-50l224 690h71zM309 832c0 25 -20 45 -45 45s-44 -20 -44 -45s18 -46 44 -46c25 0 45 21 45 46zM376 275l-112 351h-2l-113 -351h227z" />
    <glyph glyph-name="Atilde" unicode="&#xc3;" horiz-adv-x="538" 
d="M380 868c0 -39 -7 -97 -58 -97c-34 0 -88 46 -106 46c-19 0 -22 -30 -23 -44h-35c0 34 11 100 56 100c36 0 81 -49 106 -49c21 0 25 28 25 44h35zM528 0h-62l-75 229h-257l-75 -229h-50l224 690h71zM376 275l-112 351h-2l-113 -351h227z" />
    <glyph glyph-name="Ccedilla" unicode="&#xc7;" horiz-adv-x="519" 
d="M504 503h-76c0 85 -44 152 -135 152c-146 0 -174 -171 -174 -285c0 -131 34 -335 203 -335c65 0 107 25 155 65v-65c-53 -37 -122 -50 -186 -45l-9 -50c48 -1 92 -16 92 -72c0 -53 -42 -82 -92 -82c-20 0 -40 3 -58 11v42c14 -12 34 -20 53 -20c26 0 49 19 49 46
c0 46 -49 47 -83 47l14 83c-167 35 -206 222 -206 367c0 157 56 339 244 339c116 0 209 -78 209 -198z" />
    <glyph glyph-name="Eacute" unicode="&#xc9;" horiz-adv-x="445" 
d="M311 892l-61 -119h-54l41 119h74zM403 0h-315v690h306v-46h-244v-260h232v-46h-232v-290h253v-48z" />
    <glyph glyph-name="Ecircumflex" unicode="&#xca;" horiz-adv-x="445" 
d="M352 773h-53l-59 75l-64 -75h-53l86 119h59zM403 0h-315v690h306v-46h-244v-260h232v-46h-232v-290h253v-48z" />
    <glyph glyph-name="Edieresis" unicode="&#xcb;" horiz-adv-x="445" 
d="M349 784h-74v78h74v-78zM185 784h-74v78h74v-78zM403 0h-315v690h306v-46h-244v-260h232v-46h-232v-290h253v-48z" />
    <glyph glyph-name="Egrave" unicode="&#xc8;" horiz-adv-x="445" 
d="M264 773h-54l-61 119h74zM403 0h-315v690h306v-46h-244v-260h232v-46h-232v-290h253v-48z" />
    <glyph glyph-name="Iacute" unicode="&#xcd;" horiz-adv-x="241" 
d="M209 892l-61 -119h-54l41 119h74zM151 0h-62v690h62v-690z" />
    <glyph glyph-name="Icircumflex" unicode="&#xce;" horiz-adv-x="241" 
d="M225 773h-53l-59 75l-64 -75h-53l86 119h59zM151 0h-62v690h62v-690z" />
    <glyph glyph-name="Idieresis" unicode="&#xcf;" horiz-adv-x="241" 
d="M232 784h-74v78h74v-78zM68 784h-74v78h74v-78zM151 0h-62v690h62v-690z" />
    <glyph glyph-name="Igrave" unicode="&#xcc;" horiz-adv-x="241" 
d="M162 773h-54l-61 119h74zM151 0h-62v690h62v-690z" />
    <glyph glyph-name="Ntilde" unicode="&#xd1;" horiz-adv-x="612" 
d="M417 868c0 -39 -7 -97 -58 -97c-34 0 -88 46 -106 46c-19 0 -22 -30 -23 -44h-35c0 34 11 100 56 100c36 0 81 -49 106 -49c21 0 25 28 25 44h35zM524 0h-82l-295 614h-2v-614h-57v690h77l300 -619h2v619h57v-690z" />
    <glyph glyph-name="Oacute" unicode="&#xd3;" horiz-adv-x="575" 
d="M376 892l-61 -119h-54l41 119h74zM523 346c0 -160 -31 -357 -234 -357c-199 0 -238 198 -238 357c0 157 42 355 238 355c193 0 234 -201 234 -355zM455 342c0 109 -23 313 -169 313c-151 0 -167 -202 -167 -313c0 -110 26 -307 172 -307c152 0 164 196 164 307z" />
    <glyph glyph-name="Ocircumflex" unicode="&#xd4;" horiz-adv-x="575" 
d="M402 773h-53l-59 75l-64 -75h-53l86 119h59zM523 346c0 -160 -31 -357 -234 -357c-199 0 -238 198 -238 357c0 157 42 355 238 355c193 0 234 -201 234 -355zM455 342c0 109 -23 313 -169 313c-151 0 -167 -202 -167 -313c0 -110 26 -307 172 -307c152 0 164 196 164 307
z" />
    <glyph glyph-name="Odieresis" unicode="&#xd6;" horiz-adv-x="575" 
d="M414 784h-74v78h74v-78zM250 784h-74v78h74v-78zM523 346c0 -160 -31 -357 -234 -357c-199 0 -238 198 -238 357c0 157 42 355 238 355c193 0 234 -201 234 -355zM455 342c0 109 -23 313 -169 313c-151 0 -167 -202 -167 -313c0 -110 26 -307 172 -307
c152 0 164 196 164 307z" />
    <glyph glyph-name="Ograve" unicode="&#xd2;" horiz-adv-x="575" 
d="M329 773h-54l-61 119h74zM523 346c0 -160 -31 -357 -234 -357c-199 0 -238 198 -238 357c0 157 42 355 238 355c193 0 234 -201 234 -355zM455 342c0 109 -23 313 -169 313c-151 0 -167 -202 -167 -313c0 -110 26 -307 172 -307c152 0 164 196 164 307z" />
    <glyph glyph-name="Otilde" unicode="&#xd5;" horiz-adv-x="575" 
d="M398 868c0 -39 -7 -97 -58 -97c-34 0 -88 46 -106 46c-19 0 -22 -30 -23 -44h-35c0 34 11 100 56 100c36 0 81 -49 106 -49c21 0 25 28 25 44h35zM523 346c0 -160 -31 -357 -234 -357c-199 0 -238 198 -238 357c0 157 42 355 238 355c193 0 234 -201 234 -355zM455 342
c0 109 -23 313 -169 313c-151 0 -167 -202 -167 -313c0 -110 26 -307 172 -307c152 0 164 196 164 307z" />
    <glyph glyph-name="Scaron" unicode="&#x160;" horiz-adv-x="463" 
d="M346 892l-86 -119h-59l-84 119h53l60 -75l63 75h53zM425 181c0 -135 -107 -192 -229 -192c-51 0 -103 4 -153 16v71c48 -23 104 -39 157 -39c87 0 157 43 157 137c0 176 -318 140 -318 356c0 121 101 171 209 171c46 0 92 -5 137 -16v-69c-48 22 -99 39 -152 39
c-69 0 -133 -36 -133 -112c0 -78 54 -104 115 -136c32 -16 65 -33 96 -52c74 -44 114 -83 114 -174z" />
    <glyph glyph-name="Uacute" unicode="&#xda;" horiz-adv-x="593" 
d="M385 892l-61 -119h-54l41 119h74zM511 229c0 -140 -68 -240 -217 -240c-150 0 -211 101 -211 240v461h62v-442c0 -107 23 -213 153 -213c129 0 151 107 151 213v442h62v-461z" />
    <glyph glyph-name="Ucircumflex" unicode="&#xdb;" horiz-adv-x="593" 
d="M411 773h-53l-59 75l-64 -75h-53l86 119h59zM511 229c0 -140 -68 -240 -217 -240c-150 0 -211 101 -211 240v461h62v-442c0 -107 23 -213 153 -213c129 0 151 107 151 213v442h62v-461z" />
    <glyph glyph-name="Udieresis" unicode="&#xdc;" horiz-adv-x="593" 
d="M423 784h-74v78h74v-78zM259 784h-74v78h74v-78zM511 229c0 -140 -68 -240 -217 -240c-150 0 -211 101 -211 240v461h62v-442c0 -107 23 -213 153 -213c129 0 151 107 151 213v442h62v-461z" />
    <glyph glyph-name="Ugrave" unicode="&#xd9;" horiz-adv-x="593" 
d="M338 773h-54l-61 119h74zM511 229c0 -140 -68 -240 -217 -240c-150 0 -211 101 -211 240v461h62v-442c0 -107 23 -213 153 -213c129 0 151 107 151 213v442h62v-461z" />
    <glyph glyph-name="Yacute" unicode="&#xdd;" 
d="M330 892l-61 -119h-54l41 119h74zM482 690l-213 -373v-317h-62v317l-207 373h69l172 -314l176 314h65z" />
    <glyph glyph-name="Ydieresis" unicode="&#x178;" 
d="M368 784h-74v78h74v-78zM204 784h-74v78h74v-78zM482 690l-213 -373v-317h-62v317l-207 373h69l172 -314l176 314h65z" />
    <glyph glyph-name="Zcaron" unicode="&#x17d;" 
d="M356 892l-86 -119h-59l-84 119h53l60 -75l63 75h53zM454 0h-426v48l338 596h-321v46h395v-46l-340 -596h354v-48z" />
    <glyph glyph-name="aacute" unicode="&#xe1;" horiz-adv-x="445" 
d="M311 678l-61 -119h-54l41 119h74zM362 0h-55v74h-2c-22 -50 -83 -85 -137 -85c-69 0 -127 50 -127 121c0 133 165 155 266 155v32c0 75 0 151 -97 151c-60 0 -87 -29 -89 -88h-69c12 93 76 127 164 127c112 0 146 -60 146 -164v-323zM307 199v27
c-73 0 -205 -10 -205 -109c0 -48 37 -78 83 -78c86 0 122 86 122 160z" />
    <glyph glyph-name="acircumflex" unicode="&#xe2;" horiz-adv-x="445" 
d="M337 559h-53l-59 75l-64 -75h-53l86 119h59zM362 0h-55v74h-2c-22 -50 -83 -85 -137 -85c-69 0 -127 50 -127 121c0 133 165 155 266 155v32c0 75 0 151 -97 151c-60 0 -87 -29 -89 -88h-69c12 93 76 127 164 127c112 0 146 -60 146 -164v-323zM307 199v27
c-73 0 -205 -10 -205 -109c0 -48 37 -78 83 -78c86 0 122 86 122 160z" />
    <glyph glyph-name="adieresis" unicode="&#xe4;" horiz-adv-x="445" 
d="M349 570h-74v78h74v-78zM185 570h-74v78h74v-78zM362 0h-55v74h-2c-22 -50 -83 -85 -137 -85c-69 0 -127 50 -127 121c0 133 165 155 266 155v32c0 75 0 151 -97 151c-60 0 -87 -29 -89 -88h-69c12 93 76 127 164 127c112 0 146 -60 146 -164v-323zM307 199v27
c-73 0 -205 -10 -205 -109c0 -48 37 -78 83 -78c86 0 122 86 122 160z" />
    <glyph glyph-name="agrave" unicode="&#xe0;" horiz-adv-x="445" 
d="M264 559h-54l-61 119h74zM362 0h-55v74h-2c-22 -50 -83 -85 -137 -85c-69 0 -127 50 -127 121c0 133 165 155 266 155v32c0 75 0 151 -97 151c-60 0 -87 -29 -89 -88h-69c12 93 76 127 164 127c112 0 146 -60 146 -164v-323zM307 199v27c-73 0 -205 -10 -205 -109
c0 -48 37 -78 83 -78c86 0 122 86 122 160z" />
    <glyph glyph-name="aring" unicode="&#xe5;" horiz-adv-x="445" 
d="M286 618c0 -44 -35 -80 -79 -80s-78 37 -78 80s35 79 78 79s79 -36 79 -79zM362 0h-55v74h-2c-22 -50 -83 -85 -137 -85c-69 0 -127 50 -127 121c0 133 165 155 266 155v32c0 75 0 151 -97 151c-60 0 -87 -29 -89 -88h-69c12 93 76 127 164 127c112 0 146 -60 146 -164
v-323zM252 618c0 25 -20 45 -45 45s-44 -20 -44 -45s18 -46 44 -46c25 0 45 21 45 46zM307 199v27c-73 0 -205 -10 -205 -109c0 -48 37 -78 83 -78c86 0 122 86 122 160z" />
    <glyph glyph-name="atilde" unicode="&#xe3;" horiz-adv-x="445" 
d="M333 654c0 -39 -7 -97 -58 -97c-34 0 -88 46 -106 46c-19 0 -22 -30 -23 -44h-35c0 34 11 100 56 100c36 0 81 -49 106 -49c21 0 25 28 25 44h35zM362 0h-55v74h-2c-22 -50 -83 -85 -137 -85c-69 0 -127 50 -127 121c0 133 165 155 266 155v32c0 75 0 151 -97 151
c-60 0 -87 -29 -89 -88h-69c12 93 76 127 164 127c112 0 146 -60 146 -164v-323zM307 199v27c-73 0 -205 -10 -205 -109c0 -48 37 -78 83 -78c86 0 122 86 122 160z" />
    <glyph glyph-name="ccedilla" unicode="&#xe7;" horiz-adv-x="408" 
d="M378 335h-69c0 64 -15 113 -89 113c-98 0 -114 -112 -114 -188c0 -114 52 -230 182 -230c24 0 49 3 72 11v-41c-28 -8 -58 -11 -87 -11c-12 0 -24 1 -37 2l-9 -51c48 -2 92 -16 92 -72c0 -53 -42 -82 -92 -82c-20 0 -40 3 -58 11v42c15 -12 34 -20 53 -20
c26 0 49 19 49 46c0 46 -49 47 -83 47l14 85c-124 29 -157 138 -157 252c0 120 41 238 181 238c94 0 152 -58 152 -152z" />
    <glyph glyph-name="eacute" unicode="&#xe9;" horiz-adv-x="431" 
d="M304 678l-61 -119h-54l41 119h74zM388 297h-281c0 -92 21 -208 113 -251c23 -11 48 -16 73 -16c29 0 58 2 86 12v-42c-33 -8 -66 -11 -100 -11c-167 0 -233 105 -233 261c0 124 41 237 184 237c114 0 158 -87 158 -190zM327 336c0 67 -35 112 -105 112
s-106 -46 -111 -112h216z" />
    <glyph glyph-name="ecircumflex" unicode="&#xea;" horiz-adv-x="431" 
d="M330 559h-53l-59 75l-64 -75h-53l86 119h59zM388 297h-281c0 -92 21 -208 113 -251c23 -11 48 -16 73 -16c29 0 58 2 86 12v-42c-33 -8 -66 -11 -100 -11c-167 0 -233 105 -233 261c0 124 41 237 184 237c114 0 158 -87 158 -190zM327 336c0 67 -35 112 -105 112
s-106 -46 -111 -112h216z" />
    <glyph glyph-name="edieresis" unicode="&#xeb;" horiz-adv-x="431" 
d="M342 570h-74v78h74v-78zM178 570h-74v78h74v-78zM388 297h-281c0 -92 21 -208 113 -251c23 -11 48 -16 73 -16c29 0 58 2 86 12v-42c-33 -8 -66 -11 -100 -11c-167 0 -233 105 -233 261c0 124 41 237 184 237c114 0 158 -87 158 -190zM327 336c0 67 -35 112 -105 112
s-106 -46 -111 -112h216z" />
    <glyph glyph-name="egrave" unicode="&#xe8;" horiz-adv-x="431" 
d="M257 559h-54l-61 119h74zM388 297h-281c0 -92 21 -208 113 -251c23 -11 48 -16 73 -16c29 0 58 2 86 12v-42c-33 -8 -66 -11 -100 -11c-167 0 -233 105 -233 261c0 124 41 237 184 237c114 0 158 -87 158 -190zM327 336c0 67 -35 112 -105 112s-106 -46 -111 -112h216z
" />
    <glyph glyph-name="iacute" unicode="&#xed;" horiz-adv-x="222" 
d="M200 678l-61 -119h-54l41 119h74zM139 0h-55v476h55v-476z" />
    <glyph glyph-name="icircumflex" unicode="&#xee;" horiz-adv-x="222" 
d="M216 559h-53l-59 75l-64 -75h-53l86 119h59zM139 0h-55v476h55v-476z" />
    <glyph glyph-name="idieresis" unicode="&#xef;" horiz-adv-x="222" 
d="M228 570h-74v78h74v-78zM64 570h-74v78h74v-78zM139 0h-55v476h55v-476z" />
    <glyph glyph-name="igrave" unicode="&#xec;" horiz-adv-x="222" 
d="M153 559h-54l-61 119h74zM139 0h-55v476h55v-476z" />
    <glyph glyph-name="ntilde" unicode="&#xf1;" horiz-adv-x="501" 
d="M351 654c0 -39 -7 -97 -58 -97c-34 0 -88 46 -106 46c-19 0 -22 -30 -23 -44h-35c0 34 11 100 56 100c36 0 81 -49 106 -49c21 0 25 28 25 44h35zM418 0h-55v318c0 54 -5 119 -75 119c-89 0 -150 -147 -150 -222v-215h-55v476h55v-130h2c24 69 78 141 158 141
c97 0 120 -72 120 -155v-332z" />
    <glyph glyph-name="oacute" unicode="&#xf3;" 
d="M330 678l-61 -119h-54l41 119h74zM437 232c0 -126 -52 -243 -195 -243c-149 0 -196 123 -196 252c0 122 51 246 192 246c149 0 199 -126 199 -255zM376 229c0 92 -20 219 -138 219c-106 0 -131 -113 -131 -198c0 -89 19 -222 134 -222c112 0 135 111 135 201z" />
    <glyph glyph-name="ocircumflex" unicode="&#xf4;" 
d="M356 559h-53l-59 75l-64 -75h-53l86 119h59zM437 232c0 -126 -52 -243 -195 -243c-149 0 -196 123 -196 252c0 122 51 246 192 246c149 0 199 -126 199 -255zM376 229c0 92 -20 219 -138 219c-106 0 -131 -113 -131 -198c0 -89 19 -222 134 -222c112 0 135 111 135 201z
" />
    <glyph glyph-name="odieresis" unicode="&#xf6;" 
d="M368 570h-74v78h74v-78zM204 570h-74v78h74v-78zM437 232c0 -126 -52 -243 -195 -243c-149 0 -196 123 -196 252c0 122 51 246 192 246c149 0 199 -126 199 -255zM376 229c0 92 -20 219 -138 219c-106 0 -131 -113 -131 -198c0 -89 19 -222 134 -222
c112 0 135 111 135 201z" />
    <glyph glyph-name="ograve" unicode="&#xf2;" 
d="M283 559h-54l-61 119h74zM437 232c0 -126 -52 -243 -195 -243c-149 0 -196 123 -196 252c0 122 51 246 192 246c149 0 199 -126 199 -255zM376 229c0 92 -20 219 -138 219c-106 0 -131 -113 -131 -198c0 -89 19 -222 134 -222c112 0 135 111 135 201z" />
    <glyph glyph-name="otilde" unicode="&#xf5;" 
d="M352 654c0 -39 -7 -97 -58 -97c-34 0 -88 46 -106 46c-19 0 -22 -30 -23 -44h-35c0 34 11 100 56 100c36 0 81 -49 106 -49c21 0 25 28 25 44h35zM437 232c0 -126 -52 -243 -195 -243c-149 0 -196 123 -196 252c0 122 51 246 192 246c149 0 199 -126 199 -255zM376 229
c0 92 -20 219 -138 219c-106 0 -131 -113 -131 -198c0 -89 19 -222 134 -222c112 0 135 111 135 201z" />
    <glyph glyph-name="scaron" unicode="&#x161;" horiz-adv-x="352" 
d="M291 678l-86 -119h-59l-84 119h53l60 -75l63 75h53zM335 131c0 -106 -83 -142 -176 -142c-43 0 -92 4 -132 21v61c37 -21 95 -36 137 -36c58 0 110 20 110 87c0 120 -242 91 -242 242c0 94 79 123 160 123c38 0 75 -10 112 -17v-59c-40 17 -79 35 -123 35
c-43 0 -93 -15 -93 -67c0 -115 247 -85 247 -248z" />
    <glyph glyph-name="uacute" unicode="&#xfa;" horiz-adv-x="501" 
d="M339 678l-61 -119h-54l41 119h74zM415 0h-55v118h-2c-20 -65 -64 -129 -139 -129c-99 0 -140 62 -140 155v332h55v-319c0 -51 17 -118 80 -118c107 0 146 136 146 222v215h55v-476z" />
    <glyph glyph-name="ucircumflex" unicode="&#xfb;" horiz-adv-x="501" 
d="M355 559h-53l-59 75l-64 -75h-53l86 119h59zM415 0h-55v118h-2c-20 -65 -64 -129 -139 -129c-99 0 -140 62 -140 155v332h55v-319c0 -51 17 -118 80 -118c107 0 146 136 146 222v215h55v-476z" />
    <glyph glyph-name="udieresis" unicode="&#xfc;" horiz-adv-x="501" 
d="M367 570h-74v78h74v-78zM203 570h-74v78h74v-78zM415 0h-55v118h-2c-20 -65 -64 -129 -139 -129c-99 0 -140 62 -140 155v332h55v-319c0 -51 17 -118 80 -118c107 0 146 136 146 222v215h55v-476z" />
    <glyph glyph-name="ugrave" unicode="&#xf9;" horiz-adv-x="501" 
d="M292 559h-54l-61 119h74zM415 0h-55v118h-2c-20 -65 -64 -129 -139 -129c-99 0 -140 62 -140 155v332h55v-319c0 -51 17 -118 80 -118c107 0 146 136 146 222v215h55v-476z" />
    <glyph glyph-name="yacute" unicode="&#xfd;" horiz-adv-x="426" 
d="M302 678l-61 -119h-54l41 119h74zM416 476l-228 -661h-50l63 190l-190 471h59l160 -394l133 394h53z" />
    <glyph glyph-name="ydieresis" unicode="&#xff;" horiz-adv-x="426" 
d="M340 570h-74v78h74v-78zM176 570h-74v78h74v-78zM416 476l-228 -661h-50l63 190l-190 471h59l160 -394l133 394h53z" />
    <glyph glyph-name="zcaron" unicode="&#x17e;" horiz-adv-x="389" 
d="M309 678l-86 -119h-59l-84 119h53l60 -75l63 75h53zM362 0h-335v42l261 393h-242v41h315v-28l-267 -407h268v-41z" />
    <glyph glyph-name="uni00A0" unicode="&#xa0;" horiz-adv-x="241" 
 />
    <glyph glyph-name="uni00AD" unicode="&#xad;" horiz-adv-x="389" 
d="M332 215h-275v56h275v-56z" />
    <glyph glyph-name="uni02C9" unicode="&#x2c9;" horiz-adv-x="301" 
d="M265 559h-230v53h230v-53z" />
    <glyph glyph-name="uni03A9" unicode="&#x3a9;" horiz-adv-x="657" 
d="M601 0h-206v57c57 55 135 148 135 319c0 160 -72 276 -203 276c-129 0 -209 -118 -209 -276c0 -166 73 -259 137 -319v-57h-206v57h140c-57 52 -142 154 -142 328c0 185 114 327 281 327c171 0 273 -132 273 -325c0 -158 -74 -269 -141 -330h141v-57z" />
    <glyph glyph-name="uni03BC" unicode="&#x3bc;" horiz-adv-x="501" 
d="M479 -6c-6 -1 -12 -2 -17 -2c-73 0 -86 47 -85 108h-2c-9 -66 -66 -111 -131 -111c-40 0 -65 13 -91 42v-245h-56v690h55v-273c0 -73 10 -164 103 -164c107 0 119 143 119 222v215h55v-382c0 -27 3 -58 37 -58h13v-42z" />
    <glyph glyph-name="pi" unicode="&#x3c0;" horiz-adv-x="566" 
d="M562 7c-13 -9 -38 -14 -62 -14c-85 0 -114 63 -114 130v318h-178v-309c0 -55 -6 -100 -13 -132h-77c10 39 14 88 14 135v306c-25 0 -66 -10 -90 -21c-7 18 -14 35 -21 53c25 14 74 27 133 27h405v-59h-97v-310c0 -47 15 -79 57 -79c10 0 19 3 28 7c6 -17 10 -35 15 -52z
" />
    <glyph glyph-name="Euro" unicode="&#x20ac;" horiz-adv-x="519" 
d="M495 479h-71c-2 89 -45 144 -115 144c-86 0 -142 -88 -148 -233h237l-8 -41h-230v-6c0 -14 1 -20 2 -35h220l-8 -41h-209c11 -149 72 -229 173 -229c43 0 70 10 118 46l16 12v-63c-38 -27 -87 -43 -139 -43c-136 0 -216 95 -233 277h-83l8 41h71c0 10 -1 23 -1 36v5h-62
l8 41h56c14 181 89 277 215 277c105 0 182 -79 183 -188z" />
    <glyph glyph-name="litre" unicode="&#x2113;" horiz-adv-x="453" 
d="M372 51c-26 -28 -66 -64 -120 -64c-32 0 -57 11 -74 29c-24 24 -36 65 -36 116v121c-19 -21 -38 -43 -57 -65c-10 12 -21 23 -32 34c30 35 59 69 89 103v237c0 114 45 166 112 166c66 0 90 -57 90 -102c0 -95 -46 -181 -109 -267c-8 -11 -21 -29 -28 -38v-192
c0 -65 26 -88 58 -88s58 23 81 49c8 -13 17 -26 26 -39zM293 620c0 24 -8 54 -37 54c-27 0 -49 -21 -49 -112v-164c5 7 10 15 15 22c42 65 71 136 71 200z" />
    <glyph glyph-name="Omega" unicode="&#x2126;" horiz-adv-x="657" 
d="M601 0h-206v57c57 55 135 148 135 319c0 160 -72 276 -203 276c-129 0 -209 -118 -209 -276c0 -166 73 -259 137 -319v-57h-206v57h140c-57 52 -142 154 -142 328c0 185 114 327 281 327c171 0 273 -132 273 -325c0 -158 -74 -269 -141 -330h141v-57z" />
    <glyph glyph-name="estimated" unicode="&#x212e;" horiz-adv-x="629" 
d="M583 275h-425v-189c41 -40 91 -61 151 -61c90 0 154 44 202 125c12 -7 23 -15 35 -22c-59 -87 -125 -140 -237 -140c-166 0 -269 128 -269 287c0 160 102 287 269 287c171 0 267 -126 274 -287zM460 312v150c-41 42 -94 64 -152 64c-60 0 -110 -20 -150 -62v-152h302z
" />
    <glyph glyph-name="partialdiff" unicode="&#x2202;" horiz-adv-x="523" 
d="M484 498c0 -53 -8 -125 -25 -197c-34 -142 -117 -311 -262 -311c-95 0 -158 71 -158 178c0 188 119 331 251 331c62 0 101 -32 119 -68h2c3 22 6 46 6 76c0 116 -49 164 -127 164c-26 0 -57 -8 -83 -23c-6 16 -12 33 -18 49c23 15 70 29 109 29c113 0 186 -74 186 -228z
M402 362c-15 50 -51 84 -109 84c-100 0 -186 -132 -186 -281c0 -76 39 -119 92 -119c93 0 167 122 203 316z" />
    <glyph glyph-name="Delta" unicode="&#x2206;" horiz-adv-x="554" 
d="M535 0h-517v36c73 222 146 442 219 664h82c72 -222 144 -442 216 -664v-36zM455 58c-55 171 -109 342 -164 513c-8 23 -10 40 -14 55h-3c-3 -14 -8 -35 -14 -55c-54 -171 -109 -342 -164 -513h359z" />
    <glyph glyph-name="product" unicode="&#x220f;" horiz-adv-x="650" 
d="M570 -230h-68v871h-353v-871h-69v930h490v-930z" />
    <glyph glyph-name="summation" unicode="&#x2211;" horiz-adv-x="574" 
d="M536 -230h-512v30c100 147 200 293 300 439c-92 142 -185 283 -277 425v36h465v-57h-380c88 -135 176 -268 264 -403c-94 -137 -189 -275 -283 -413h423v-57z" />
    <glyph glyph-name="uni2215" unicode="&#x2215;" horiz-adv-x="201" 
d="M218 634l-196 -634h-49l198 634h47z" />
    <glyph glyph-name="uni2219" unicode="&#x2219;" horiz-adv-x="204" 
d="M144 274h-85v85h85v-85z" />
    <glyph glyph-name="radical" unicode="&#x221a;" horiz-adv-x="442" 
d="M458 728c-57 -247 -113 -493 -170 -740h-59c-42 115 -83 230 -125 345c-17 -10 -33 -19 -50 -29c-9 15 -16 29 -24 44c36 20 73 42 109 62c39 -108 79 -217 118 -326c49 214 97 430 146 644h55z" />
    <glyph glyph-name="infinity" unicode="&#x221e;" horiz-adv-x="702" 
d="M653 293c0 -85 -60 -152 -144 -152c-74 0 -129 48 -160 102h-2c-35 -55 -89 -102 -154 -102c-86 0 -148 60 -148 149c0 90 61 152 145 152c81 0 132 -58 158 -102h2c27 44 78 102 155 102c84 0 148 -59 148 -149zM592 293c0 53 -30 96 -89 96c-54 0 -91 -38 -127 -97
c34 -63 79 -98 126 -98c61 0 90 45 90 99zM321 292c-30 54 -78 97 -126 97c-63 0 -90 -46 -90 -99c0 -57 38 -96 90 -96c55 0 97 48 126 98z" />
    <glyph glyph-name="integral" unicode="&#x222b;" horiz-adv-x="452" 
d="M374 685c-9 4 -25 8 -40 8c-50 0 -77 -35 -77 -97v-661c0 -94 -48 -155 -139 -155c-20 0 -47 4 -60 10c5 17 9 35 14 53c11 -5 22 -8 40 -8c52 0 77 34 77 96v662c0 93 50 156 141 156c22 0 49 -6 59 -12c-6 -17 -10 -35 -15 -52z" />
    <glyph glyph-name="approxequal" unicode="&#x2248;" horiz-adv-x="575" 
d="M499 418c-28 -43 -65 -78 -119 -78c-36 0 -70 13 -100 31c-25 17 -54 31 -83 31c-31 0 -62 -25 -84 -62l-36 39c27 42 63 78 120 78c37 0 68 -12 98 -31s55 -31 84 -31c31 0 62 25 84 63zM499 208c-28 -43 -65 -79 -119 -79c-36 0 -70 13 -100 32c-25 16 -54 31 -83 31
c-31 0 -62 -26 -84 -63l-36 40c27 42 63 78 120 78c37 0 68 -13 98 -31c30 -19 55 -32 84 -32c31 0 62 25 84 63z" />
    <glyph glyph-name="notequal" unicode="&#x2260;" horiz-adv-x="575" 
d="M485 160h-233l-59 -129h-57l60 129h-105v55h130l72 156h-202v55h227l60 133h57l-61 -133h111v-55h-136l-72 -156h208v-55z" />
    <glyph glyph-name="lessequal" unicode="&#x2264;" horiz-adv-x="575" 
d="M485 0h-394v55h394v-55zM485 133l-394 195v35l394 197v-62l-312 -151v-2l312 -151v-61z" />
    <glyph glyph-name="greaterequal" unicode="&#x2265;" horiz-adv-x="575" 
d="M485 0h-394v55h394v-55zM485 329l-394 -196v61l312 151v2l-312 152v61l394 -196v-35z" />
    <glyph glyph-name="lozenge" unicode="&#x25ca;" horiz-adv-x="488" 
d="M441 350c-59 -117 -119 -233 -178 -350h-37c-59 116 -119 233 -178 349c59 117 119 234 178 351h37c59 -117 119 -233 178 -350zM383 350c-46 91 -93 182 -139 272c-45 -90 -92 -181 -138 -272l138 -273c46 91 92 182 139 273z" />
    </font>
</defs>
</svg>
